<svg id="Group_2" data-name="Group 2" xmlns="http://www.w3.org/2000/svg" xmlns:xlink="http://www.w3.org/1999/xlink" width="235.546" height="55.205" viewBox="0 0 235.546 55.205">
  <defs>
    <clipPath id="clip-path">
      <rect id="Rectangle_7" data-name="Rectangle 7" width="235.546" height="55.205" fill="none"/>
    </clipPath>
  </defs>
  <g id="Group_1" data-name="Group 1" clip-path="url(#clip-path)">
    <path id="Path_4" data-name="Path 4" d="M300.309,0l3.722.008c.23,0,.459-.006.688-.009,2.145.057,4.288.156,6.426.34q2.6.223,5.186.57,3.4.458,6.77,1.144c1.827.37,3.642.8,5.446,1.265q3.32.863,6.575,1.945Q339,6.557,342.773,8.148a106.463,106.463,0,0,1,14.156,7.272c.4.244.794.494,1.173.775-.628-.287-1.254-.579-1.885-.861q-5.133-2.294-10.451-4.121-4.587-1.572-9.279-2.793-3.706-.971-7.465-1.711Q325.466,6,321.875,5.492q-4.388-.62-8.807-.963a138.994,138.994,0,0,0-13.941-.363c-2.541.054-5.078.2-7.612.406q-3.33.27-6.643.694c-1.851.236-3.7.525-5.536.841q-5.517.948-10.933,2.364-4.825,1.262-9.538,2.9a120.818,120.818,0,0,0-11.583,4.7c-.105.049-.216.086-.322.128l0,0c0-.008,0-.02.011-.024,1.1-.732,2.243-1.4,3.387-2.065q3.182-1.845,6.483-3.467a105.729,105.729,0,0,1,11.241-4.73q4.221-1.495,8.555-2.621,3.562-.922,7.182-1.59c1.465-.268,2.934-.513,4.408-.721,1.768-.25,3.542-.445,5.32-.6,2.248-.2,4.5-.309,6.756-.377" transform="translate(-159.204)" fill="#cf202f"/>
    <path id="Path_5" data-name="Path 5" d="M623.706,61.3V57H602.168V69.918H619.4v4.308h-17.23c0,1.183,0,2.6,0,4.308h21.538V65.61h-17.23V61.3Z" transform="translate(-388.189 -36.742)" fill="#1c458a" fill-rule="evenodd"/>
    <path id="Path_6" data-name="Path 6" d="M222.877,65.61h8.615V61.3H218.57V74.226l17.229,0V78.53l-21.538,0V57h17.23v0H235.8V69.918H222.877Z" transform="translate(-138.125 -36.742)" fill="#1c458a" fill-rule="evenodd"/>
    <path id="Path_7" data-name="Path 7" d="M304.224,61.3H291.3V74.226h12.923Zm4.308,30.644h-4.308V78.534h-17.23V57h21.538Z" transform="translate(-185.012 -36.743)" fill="#1c458a" fill-rule="evenodd"/>
    <path id="Path_8" data-name="Path 8" d="M381.267,78.533V56.995h-4.308v17.23H364.037V56.995h-4.308V78.533Z" transform="translate(-231.901 -36.742)" fill="#1c458a" fill-rule="evenodd"/>
    <rect id="Rectangle_4" data-name="Rectangle 4" width="4.308" height="21.538" transform="translate(153.673 20.253)" fill="#1c458a"/>
    <path id="Path_9" data-name="Path 9" d="M456.7,20.629h4.309V33.556l17.229,0v4.308l-17.229-.017v.017h0V50.782h17.23V55.09H456.7Z" transform="translate(-294.413 -13.299)" fill="#1c458a" fill-rule="evenodd"/>
    <path id="Path_10" data-name="Path 10" d="M542.356,65.61v4.308H533.74v4.308h12.923V61.3h-17.23V57h21.538V78.533H529.433V65.61Z" transform="translate(-341.301 -36.742)" fill="#1c458a" fill-rule="evenodd"/>
    <path id="Path_11" data-name="Path 11" d="M359.727,133.484h3.511v.937H360.92v1.465h2.122v.937H360.92v1.67h2.335v.937h-3.528Z" transform="translate(-231.899 -86.051)" fill="#cf202f"/>
    <path id="Path_12" data-name="Path 12" d="M375.152,141.573h-.017a1.5,1.5,0,0,1-1.287.605c-1.372,0-1.866-1.108-1.866-2.309s.494-2.283,1.866-2.283a1.444,1.444,0,0,1,1.338.724h.017v-.622h1.091v6.178h-1.142Zm-1.977-1.7c0,.605.213,1.423.963,1.423s1.006-.8,1.006-1.423-.29-1.4-1.023-1.4-.946.809-.946,1.4" transform="translate(-239.8 -88.695)" fill="#cf202f"/>
    <path id="Path_13" data-name="Path 13" d="M391.458,142.261h-1.082v-.6h-.017a1.829,1.829,0,0,1-1.44.7c-1.039,0-1.491-.733-1.491-1.721v-2.77h1.142v2.344c0,.537.009,1.261.742,1.261.827,0,1.005-.895,1.005-1.457v-2.147h1.142Z" transform="translate(-249.757 -88.88)" fill="#cf202f"/>
    <path id="Path_14" data-name="Path 14" d="M402.16,132.549H403.3v1.091H402.16Zm0,1.892H403.3v4.389H402.16Z" transform="translate(-259.254 -85.448)" fill="#cf202f"/>
    <path id="Path_15" data-name="Path 15" d="M408.28,136.45h-.844v-.835h.844v-.877l1.142-.367v1.244h1.014v.835h-1.014V138.5c0,.375.1.724.537.724a1.019,1.019,0,0,0,.52-.119l.034.9a3,3,0,0,1-.844.1,1.29,1.29,0,0,1-1.389-1.423Z" transform="translate(-262.655 -86.623)" fill="#cf202f"/>
    <path id="Path_16" data-name="Path 16" d="M417.769,137.916a3.934,3.934,0,0,1,1.526-.332c1.338,0,1.892.554,1.892,1.849V140c0,.443.009.776.017,1.1s.026.639.051.98h-1.006a5.49,5.49,0,0,1-.051-.656h-.017a1.566,1.566,0,0,1-1.355.758,1.4,1.4,0,0,1-1.534-1.3,1.29,1.29,0,0,1,.75-1.253,3.478,3.478,0,0,1,1.474-.255h.631c0-.707-.315-.946-.989-.946a2.3,2.3,0,0,0-1.355.477Zm1.338,3.426a.969.969,0,0,0,.8-.392,1.453,1.453,0,0,0,.239-.9h-.494c-.511,0-1.27.086-1.27.759,0,.375.315.537.724.537" transform="translate(-269.009 -88.694)" fill="#cf202f"/>
    <path id="Path_17" data-name="Path 17" d="M433.51,138.607a2.8,2.8,0,0,0-1.022-.188c-.307,0-.673.111-.673.486,0,.7,1.985.255,1.985,1.84,0,1.023-.911,1.432-1.84,1.432a5.111,5.111,0,0,1-1.3-.187l.068-.937a2.51,2.51,0,0,0,1.125.29c.29,0,.75-.111.75-.537,0-.861-1.985-.273-1.985-1.858,0-.946.827-1.363,1.721-1.363a5.273,5.273,0,0,1,1.244.162Z" transform="translate(-277.602 -88.694)" fill="#cf202f"/>
    <path id="Path_18" data-name="Path 18" d="M451.857,134.389a3.084,3.084,0,0,0-1.21-.255.828.828,0,0,0-.937.827c0,1.031,2.608.6,2.608,2.59,0,1.3-1.031,1.8-2.233,1.8a5.234,5.234,0,0,1-1.525-.23l.111-1.074a2.871,2.871,0,0,0,1.347.366c.451,0,1.056-.23,1.056-.767,0-1.133-2.608-.664-2.608-2.633,0-1.329,1.031-1.815,2.079-1.815a4.5,4.5,0,0,1,1.423.213Z" transform="translate(-289.105 -85.865)" fill="#cf202f"/>
    <path id="Path_19" data-name="Path 19" d="M462.02,137.686h1.065v.614h.017a1.546,1.546,0,0,1,1.3-.716,1.28,1.28,0,0,1,1.3.776,1.5,1.5,0,0,1,1.372-.776c1.082,0,1.389.742,1.389,1.721v2.77H467.32v-2.616c0-.409,0-.989-.656-.989-.758,0-.852.9-.852,1.474v2.13H464.67v-2.616c0-.409,0-.989-.656-.989-.758,0-.852.9-.852,1.474v2.13H462.02Z" transform="translate(-297.843 -88.694)" fill="#cf202f"/>
    <path id="Path_20" data-name="Path 20" d="M483.08,137.916a3.929,3.929,0,0,1,1.525-.332c1.338,0,1.892.554,1.892,1.849V140c0,.443.009.776.017,1.1s.026.639.051.98h-1.006a5.482,5.482,0,0,1-.051-.656h-.017a1.566,1.566,0,0,1-1.355.758,1.4,1.4,0,0,1-1.534-1.3,1.29,1.29,0,0,1,.75-1.253,3.478,3.478,0,0,1,1.474-.255h.631c0-.707-.315-.946-.989-.946a2.3,2.3,0,0,0-1.355.477Zm1.338,3.426a.969.969,0,0,0,.8-.392,1.453,1.453,0,0,0,.239-.9h-.494c-.511,0-1.27.086-1.27.759,0,.375.315.537.724.537" transform="translate(-311.111 -88.694)" fill="#cf202f"/>
    <rect id="Rectangle_5" data-name="Rectangle 5" width="1.142" height="6.391" transform="translate(176.536 46.99)" fill="#cf202f"/>
    <rect id="Rectangle_6" data-name="Rectangle 6" width="1.142" height="6.391" transform="translate(178.903 46.99)" fill="#cf202f"/>
    <path id="Path_21" data-name="Path 21" d="M517.01,133.484h3.306v.937H518.2v1.465h2.011v.937H518.2v2.608H517.01Z" transform="translate(-333.292 -86.051)" fill="#cf202f"/>
    <path id="Path_22" data-name="Path 22" d="M528.79,132.549h1.142v1.091H528.79Zm0,1.892h1.142v4.389H528.79Z" transform="translate(-340.887 -85.448)" fill="#cf202f"/>
    <path id="Path_23" data-name="Path 23" d="M535.39,137.686h1.082v.6h.017a1.638,1.638,0,0,1,1.439-.7c1.04,0,1.491.733,1.491,1.721v2.77h-1.142v-2.344c0-.537-.008-1.261-.741-1.261-.826,0-1.005.895-1.005,1.457v2.147H535.39Z" transform="translate(-345.141 -88.694)" fill="#cf202f"/>
    <path id="Path_24" data-name="Path 24" d="M549.729,137.916a3.93,3.93,0,0,1,1.525-.332c1.338,0,1.892.554,1.892,1.849V140c0,.443.008.776.017,1.1s.026.639.051.98h-1.005a5.2,5.2,0,0,1-.051-.656h-.017a1.568,1.568,0,0,1-1.355.758,1.4,1.4,0,0,1-1.534-1.3,1.29,1.29,0,0,1,.75-1.253,3.48,3.48,0,0,1,1.475-.255h.63c0-.707-.315-.946-.989-.946a2.3,2.3,0,0,0-1.355.477Zm1.338,3.426a.968.968,0,0,0,.8-.392,1.456,1.456,0,0,0,.239-.9h-.494c-.512,0-1.27.086-1.27.759,0,.375.315.537.725.537" transform="translate(-354.077 -88.694)" fill="#cf202f"/>
    <path id="Path_25" data-name="Path 25" d="M563.38,137.686h1.082v.6h.017a1.638,1.638,0,0,1,1.44-.7c1.04,0,1.491.733,1.491,1.721v2.77h-1.142v-2.344c0-.537-.008-1.261-.741-1.261-.827,0-1.006.895-1.006,1.457v2.147H563.38Z" transform="translate(-363.185 -88.694)" fill="#cf202f"/>
    <path id="Path_26" data-name="Path 26" d="M580.366,138.633a1.73,1.73,0,0,0-.775-.162c-.708,0-1.159.563-1.159,1.389,0,.809.383,1.432,1.184,1.432a2.419,2.419,0,0,0,.878-.2l.051.946a3.721,3.721,0,0,1-1.142.145,2.3,2.3,0,0,1-.042-4.593,3.718,3.718,0,0,1,1.108.145Z" transform="translate(-372.119 -88.695)" fill="#cf202f"/>
    <path id="Path_27" data-name="Path 27" d="M591.684,141.829a3.015,3.015,0,0,1-1.508.349,2.085,2.085,0,0,1-2.292-2.275,2.053,2.053,0,0,1,2.037-2.318c1.628,0,2.087,1.116,2.087,2.65h-3.033a1.147,1.147,0,0,0,1.253,1.108,2.961,2.961,0,0,0,1.457-.443Zm-.767-2.378c-.034-.554-.29-1.031-.929-1.031a.994.994,0,0,0-1.014,1.031Z" transform="translate(-378.982 -88.695)" fill="#cf202f"/>
    <path id="Path_28" data-name="Path 28" d="M608.973,133.484h2.079c.767,0,1.917.221,1.917,1.525a1.328,1.328,0,0,1-1.184,1.329v.017a1.381,1.381,0,0,1,1.363,1.355c0,1.5-1.346,1.721-2.1,1.721h-2.079Zm1.193,2.4h.485c.5,0,1.125-.111,1.125-.724,0-.69-.6-.741-1.15-.741h-.46Zm0,2.608h.563c.553,0,1.227-.136,1.227-.827,0-.775-.63-.895-1.227-.895h-.562Z" transform="translate(-392.577 -86.051)" fill="#cf202f"/>
    <path id="Path_29" data-name="Path 29" d="M623.019,137.916a3.93,3.93,0,0,1,1.525-.332c1.338,0,1.891.554,1.891,1.849V140c0,.443.009.776.017,1.1s.026.639.051.98H625.5a5.215,5.215,0,0,1-.051-.656h-.017a1.568,1.568,0,0,1-1.355.758,1.4,1.4,0,0,1-1.534-1.3,1.29,1.29,0,0,1,.75-1.253,3.478,3.478,0,0,1,1.474-.255h.63c0-.707-.315-.946-.989-.946a2.3,2.3,0,0,0-1.355.477Zm1.338,3.426a.969.969,0,0,0,.8-.392,1.456,1.456,0,0,0,.239-.9H624.9c-.512,0-1.27.086-1.27.759,0,.375.315.537.724.537" transform="translate(-401.323 -88.694)" fill="#cf202f"/>
    <path id="Path_30" data-name="Path 30" d="M636.67,137.686h1.082v.6h.017a1.638,1.638,0,0,1,1.44-.7c1.04,0,1.491.733,1.491,1.721v2.77h-1.142v-2.344c0-.537-.008-1.261-.741-1.261-.826,0-1.005.895-1.005,1.457v2.147H636.67Z" transform="translate(-410.432 -88.694)" fill="#cf202f"/>
    <path id="Path_31" data-name="Path 31" d="M651.4,132.237h1.142v3.758h.017l1.363-1.755h1.346l-1.636,1.96,1.841,2.428h-1.449l-1.465-2.13h-.017v2.13H651.4Z" transform="translate(-419.927 -85.247)" fill="#cf202f"/>
    <path id="Path_32" data-name="Path 32" d="M33.991,7.608a24.784,24.784,0,0,1,20.86,38.162A24.782,24.782,0,1,0,14.039,17.69,24.745,24.745,0,0,1,33.991,7.608" transform="translate(-9.05 -4.056)" fill="#c12330"/>
    <path id="Path_33" data-name="Path 33" d="M28.327,67.544A24.78,24.78,0,0,1,9.52,24.373,24.783,24.783,0,0,0,27.1,68.571c5.473-.515,7.684-1.318,11.493-4.718-3.608,2.825-5.365,3.23-10.267,3.691" transform="translate(0 -15.712)" fill="#55b748"/>
    <path id="Path_34" data-name="Path 34" d="M46.623,128.362c3.073.766.88,1.16,3.423.119,1.051-.43,3.465.884,5.089-2.126a4.2,4.2,0,0,1,3.775-1.84c.527.048,1.295.013,1.822.027a5.122,5.122,0,0,0,3.38-1.33,8.462,8.462,0,0,1,.813-.608.858.858,0,0,1,1.12.165.647.647,0,0,1-.147.947c-.776.626-1.571,1.234-2.4,1.786a16.39,16.39,0,0,1-1.687.871c-.123.063-.244.131-.366.2l.056.161c.637-.185,1.293-.323,1.909-.563a8.646,8.646,0,0,0,4.347-4.048c.437-.768.806-1.575,1.212-2.36a1.174,1.174,0,0,1,.315-.465.883.883,0,0,1,.568-.09c.054.008.122.306.091.45a11.259,11.259,0,0,1-8.057,8.956c-3.657,1.141-12.287-.347-17.066-.435" transform="translate(-28.893 -76.838)" fill="#55b748"/>
    <path id="Path_35" data-name="Path 35" d="M51.751,58.527h7.606v-3.8H47.949V66.134l15.211,0v3.8l-19.015,0V50.925H59.357v0h3.8V62.33H51.751Z" transform="translate(-28.458 -32.826)" fill="#1c458a" fill-rule="evenodd"/>
    <line id="Line_4" data-name="Line 4" x1="0.46" y2="40.091" transform="translate(63.034 7.557)" fill="none" stroke="#231f20" stroke-width="1.298"/>
  </g>
</svg>
